<?xml version="1.0" encoding="UTF-8" standalone="no"?>
<!-- Created with Inkscape (http://www.inkscape.org/) -->

<svg
   xmlns:dc="http://purl.org/dc/elements/1.1/"
   xmlns:cc="http://creativecommons.org/ns#"
   xmlns:rdf="http://www.w3.org/1999/02/22-rdf-syntax-ns#"
   xmlns:svg="http://www.w3.org/2000/svg"
   xmlns="http://www.w3.org/2000/svg"
   xmlns:sodipodi="http://sodipodi.sourceforge.net/DTD/sodipodi-0.dtd"
   xmlns:inkscape="http://www.inkscape.org/namespaces/inkscape"
   width="18.200001cm"
   height="7.0999999cm"
   viewBox="0 0 182.00001 71"
   version="1.1"
   id="svg969"
   inkscape:version="0.92.3 (2405546, 2018-03-11)"
   sodipodi:docname="ps4adaptive_backplate.svg">
  <defs
     id="defs963" />
  <sodipodi:namedview
     id="base"
     pagecolor="#ffffff"
     bordercolor="#666666"
     borderopacity="1.0"
     inkscape:pageopacity="0.0"
     inkscape:pageshadow="2"
     inkscape:zoom="1.4"
     inkscape:cx="226.65134"
     inkscape:cy="146.82761"
     inkscape:document-units="mm"
     inkscape:current-layer="layer1"
     showgrid="false"
     units="cm"
     inkscape:window-width="1920"
     inkscape:window-height="1017"
     inkscape:window-x="-8"
     inkscape:window-y="-8"
     inkscape:window-maximized="1" />
  <metadata
     id="metadata966">
    <rdf:RDF>
      <cc:Work
         rdf:about="">
        <dc:format>image/svg+xml</dc:format>
        <dc:type
           rdf:resource="http://purl.org/dc/dcmitype/StillImage" />
        <dc:title></dc:title>
      </cc:Work>
    </rdf:RDF>
  </metadata>
  <g
     inkscape:label="Layer 1"
     inkscape:groupmode="layer"
     id="layer1"
     transform="translate(0,-226)">
    <rect
       transform="scale(-1,1)"
       y="228.56998"
       x="-167.4604"
       height="50.79924"
       width="163.79924"
       id="rect1641"
       style="fill:none;fill-opacity:1;stroke:#ff0000;stroke-width:0.20076127;stroke-miterlimit:4;stroke-dasharray:none;stroke-opacity:1" />
    <rect
       style="fill:none;fill-opacity:1;stroke:#ff0000;stroke-width:0.20052813;stroke-miterlimit:4;stroke-dasharray:none;stroke-opacity:1"
       id="rect1531"
       width="18.999472"
       height="13.799472"
       x="77.569824"
       y="261.86557" />
    <rect
       style="fill:none;fill-opacity:1;stroke:#ff0000;stroke-width:0.27573237;stroke-miterlimit:4;stroke-dasharray:none;stroke-opacity:1"
       id="rect1535"
       width="13.924268"
       height="13.724268"
       x="141.59454"
       y="261.90317" />
    <text
       xml:space="preserve"
       style="font-style:normal;font-weight:normal;font-size:10.58333302px;line-height:1.25;font-family:sans-serif;letter-spacing:0px;word-spacing:0px;fill:#000000;fill-opacity:1;stroke:none;stroke-width:0.26458332"
       x="76.652802"
       y="256.99124"
       id="text1539"><tspan
         sodipodi:role="line"
         id="tspan1537"
         x="76.652802"
         y="256.99124"
         style="font-size:4.93888903px;stroke-width:0.26458332">Headset</tspan></text>
    <text
       xml:space="preserve"
       style="font-style:normal;font-weight:normal;font-size:10.58333302px;line-height:1.25;font-family:sans-serif;letter-spacing:0px;word-spacing:0px;fill:#000000;fill-opacity:1;stroke:none;stroke-width:0.26458332"
       x="143.44656"
       y="256.94785"
       id="text1539-5"><tspan
         sodipodi:role="line"
         id="tspan1537-6"
         x="143.44656"
         y="256.94785"
         style="font-size:4.93888903px;stroke-width:0.26458332">USB</tspan></text>
    <path
       inkscape:connector-curvature="0"
       d="m 87.069565,244.13748 c -1.707699,0 -3.073851,1.36615 -3.073851,3.07385 v 2.39077 a 1.0246168,1.0246168 0 0 0 1.024617,1.02462 h 1.024617 v -2.73231 h -1.366165 v -0.68308 a 2.3907726,2.3907726 0 0 1 2.390782,-2.39077 2.3907726,2.3907726 0 0 1 2.390768,2.39077 v 0.68308 h -1.366151 v 2.73231 h 1.366151 v 0.34154 h -2.390768 v 0.68307 h 2.049233 a 1.0246168,1.0246168 0 0 0 1.024617,-1.02461 v -3.41539 c 0,-1.7077 -1.376401,-3.07385 -3.07385,-3.07385 z"
       id="path2"
       style="stroke-width:0.34153894" />
    <path
       inkscape:connector-curvature="0"
       d="m 149.88319,245.14704 v 1.71165 h 0.4279 v 0.85583 h -1.28373 v -3.42331 h 0.85583 l -1.28374,-1.71164 -1.28374,1.71164 h 0.85583 v 3.42331 h -1.28373 v -0.88578 c 0.29952,-0.15833 0.51349,-0.46215 0.51349,-0.82586 0,-0.52207 -0.42363,-0.94142 -0.94142,-0.94142 -0.52205,0 -0.9414,0.41935 -0.9414,0.94142 0,0.36371 0.21395,0.66754 0.51349,0.82586 v 0.88578 a 0.85582554,0.85582554 0 0 0 0.85584,0.85583 h 1.28373 v 1.30514 c -0.30382,0.15413 -0.51349,0.4707 -0.51349,0.83441 a 0.94140808,0.94140808 0 0 0 0.9414,0.94143 0.94140808,0.94140808 0 0 0 0.94141,-0.94143 c 0,-0.36371 -0.20967,-0.68036 -0.5135,-0.83441 v -1.30514 h 1.28373 a 0.85582554,0.85582554 0 0 0 0.85584,-0.85583 v -0.85583 h 0.4279 v -1.71165 z"
       id="path2-9"
       style="stroke-width:0.42791274" />
    <g
       id="g1601"
       transform="translate(0,-10.421439)">
      <path
         inkscape:connector-curvature="0"
         d="m 35.573301,259.94536 -1.54251,1.5581 c -0.17138,0.15586 -0.39992,0.2597 -0.64922,0.2597 a 0.90889199,0.90889199 0 0 1 -0.90889,-0.90891 v -0.12975 l 0.51936,-3.83294 c 0.10914,-1.1998 1.11145,-2.13986 2.33714,-2.13986 h 4.6743 c 1.22572,0 2.2281,0.94006 2.33716,2.13978 l 0.51936,3.83294 v 0.12975 a 0.90889199,0.90889199 0 0 1 -0.90889,0.90891 c -0.24929,0 -0.4778,-0.10384 -0.64921,-0.2597 l -1.54251,-1.55802 h -4.18609 m -0.5038,-4.15492 v 1.03872 h -1.03872 v 0.51938 h 1.03872 v 1.03872 h 0.51938 v -1.03872 h 1.03872 v -0.51938 h -1.03872 v -1.03872 h -0.51938 m 4.93398,0 a 0.38952514,0.38952514 0 0 0 -0.38951,0.38951 0.38952514,0.38952514 0 0 0 0.38951,0.38953 0.38952514,0.38952514 0 0 0 0.38953,-0.38953 0.38952514,0.38952514 0 0 0 -0.38953,-0.38951 m -0.90889,0.90889 a 0.38952514,0.38952514 0 0 0 -0.38951,0.38953 0.38952514,0.38952514 0 0 0 0.38951,0.38951 0.38952514,0.38952514 0 0 0 0.38953,-0.38951 0.38952514,0.38952514 0 0 0 -0.38953,-0.38953 m 1.8178,0 a 0.38952514,0.38952514 0 0 0 -0.38953,0.38953 0.38952514,0.38952514 0 0 0 0.38953,0.38951 0.38952514,0.38952514 0 0 0 0.38951,-0.38951 0.38952514,0.38952514 0 0 0 -0.38951,-0.38953 m -0.90891,0.90889 a 0.38952514,0.38952514 0 0 0 -0.38951,0.38953 0.38952514,0.38952514 0 0 0 0.38951,0.38951 0.38952514,0.38952514 0 0 0 0.38953,-0.38951 0.38952514,0.38952514 0 0 0 -0.38953,-0.38953 z"
         id="path2-8"
         style="stroke-width:0.5193668" />
      <text
         xml:space="preserve"
         style="font-style:normal;font-variant:normal;font-weight:normal;font-stretch:semi-condensed;font-size:8.46666622px;line-height:1.25;font-family:'Lucida Console';-inkscape-font-specification:'Lucida Console, Semi-Condensed';font-variant-ligatures:normal;font-variant-caps:normal;font-variant-numeric:normal;font-feature-settings:normal;text-align:start;letter-spacing:0px;word-spacing:0px;writing-mode:lr-tb;text-anchor:start;fill:#000000;fill-opacity:1;stroke:none;stroke-width:0.26458332"
         x="11.909086"
         y="271.07999"
         id="text1188"><tspan
           sodipodi:role="line"
           id="tspan1186"
           x="11.909086"
           y="271.07999"
           style="font-style:normal;font-variant:normal;font-weight:normal;font-stretch:semi-condensed;font-size:7.05555534px;font-family:'Lucida Console';-inkscape-font-specification:'Lucida Console, Semi-Condensed';font-variant-ligatures:normal;font-variant-caps:normal;font-variant-numeric:normal;font-feature-settings:normal;text-align:start;writing-mode:lr-tb;text-anchor:start;stroke-width:0.26458332">PS4 ADAPTIVE</tspan></text>
    </g>
  </g>
</svg>
